<?xml version="1.0" encoding="utf-8"?>
<svg version="1.2" baseProfile="tiny" xmlns="http://www.w3.org/2000/svg" viewBox="0 0 262.64 509.79">
    <!--TREE-->
    <svg>
        <path fill="#ffffff" d="M146.35,190.59c0,0,44.86-0.01,47.81-0.01c-16.66-4.98-43.04,3.79-51.84-8.04c-12.73-17.12,2.97-36.04,15.29-42.66
			c0.71-2.78,1.69-5.28,4.03-6.44c9.14-3.74,14.09,7.17,16.9,10.46c0.16,0.18,0.27,0.33,0.39,0.47c-0.86-1.34-2.22-4.02-2-6.91
			c3.43,1.8,10.22,8.37,10.46,8.05c-1.29-3.02-7.15-5.7-6.44-8.05c1.34-0.1,7.29,0.44,4.83-0.8c-5.19-0.18-9.99-0.74-12.07-4.03
			c3.4,0.24,13.2,0.47,16.1-2.41c-6.16,1.33-18.8,0.95-25.76-1.61c7.82-3.08,9.14-16.67,13.99-20.57c-1.82,1.33-2.46,2.31-4.32,3.9
			c0.18,2.59-2.27,3.11-3.13,6.96c-11.44,8.14-18.33,20.18-31.49,26.61c-1.64,2.65-2.94,5.64-4.83,8.05
			c0.29-4.28,3.29-5.84,4.02-9.66c-1.23-3.08-4.44-8.41-2.42-12.07c0.13,0.95-0.14,2.28,0.81,2.41c7.63-7.12,8.93-20.58,18.51-25.75
			c10.68-0.59,25.03-1.79,26.56-8.85c-3.82,4.75-14.98,8.98-22.53,4.83c9.49-6.07,24.24-11.17,28.17-20.12
			c-7.12,8.98-19.7,12.49-30.58,17.71c-0.19-6.26,5.71-13.01,7.48-14.86c-0.78,0.75-2.57,2.39-5.87,5.2c-1.13-3.85,2.04-7.56,0-9.66
			c-1.26,3.78-1.05,7.54-1.61,11.27c-1.72,11.43-9.51,14.2-14.49,20.93c-3.24,4.37-2.3,9.42-7.24,11.27
			c-0.73-15.64,3.86-29.74,4.83-41.05c3.46-3.2,8.56-10.74,4.03-16.9c2.46,7.01-0.74,13.19-4.83,16.1
			c-0.42-1.52-1.41-6.55-2.41-4.83c0.88,1.8,1.33,4.03,2.41,5.63c-5.24,2.27-6.7,8.33-8.05,14.49c-2.45-1.71-7.17-5.71-2.41-5.63
			c-2.2,0.07-1.62-1.34-3.22,0c-3.27-3.98,0.68-19.45-5.63-17.71c4.65,1,3.49,9.58,1.61,12.88c-3.12-6-9.12-9.12-12.88-14.49
			c4.88,6.96,16.64,20.9,23.34,31.39c1.02-2.45-2.75-4.1-0.81-4.83c3.16,2.51,3.02,20.41,0,15.29c-0.09,8.88-3.16,17.72,0.81,24.15
			c-2.17-0.24-1.44-3.39-3.22-4.02c-1.52,8.84,3.09,21.87,2.41,29.78c-3.7-8.98-2.86-33.46-9.66-37.02
			c-1.56-0.82,4.49,5.79,2.41,7.24c-0.96-4.4-4.7-6.03-7.24-8.85c1.19,0.42,2.03,1.19,3.22,1.61c1.12-10.69,3.27-23.33-5.63-21.73
			c3.3,0.49,7.02,7.2,3.22,9.66c-5.7-7.81-11.02-27.1-10.46-32.94c-0.58,3.67,3.19,20.85,0.8,20.87c5.2,4.11,3.25,9.47,7.25,12.07
			c-13-2.19-25.38-3.22-24.95-16.9c0.1-3.29,3.54-5.61,3.22-10.46c-3.09,0.66-1.12,6.39-4.02,7.24c-0.59-5.91-4.28-19.93-3.22-12.88
			c1.55,10.32,3.16,21.73,4.03,26.56c-2.07-2.87-4.89-4.01-6.44,0c2.72,0.77,4.23,2.75,6.44,4.03c-7.58,2.96-13.78-1.36-16.9-2.42
			c3.84,4.75,11.9,5.27,20.93,4.83c1.39,3.97,5.26,5.47,7.24,8.85c-2.53,0.95-6.07,0.9-8.05,2.41c8.24-0.14,16.25-2.27,20.12,3.22
			c0,1.44-2.17,4.68,0,5.63c0.13-0.95-0.14-2.28,0.81-2.41c1.2,16.23,15.19,23.98,16.1,37.83c-7.05-12.15-10.59-27.29-21.73-34.61
			c-8.61-5.65-21.03-0.86-31.39-7.24c-1.29-2.17-7.15-7.54-6.44-6.44c3.22,4.36,7.34,7.83,12.02,10.74
			c0.46,0.14,0.78,0.32,0.85,0.53c-0.29-0.17-0.57-0.35-0.85-0.53c-2.15-0.66-7.42-0.48-5.59,0.53c3.67-0.45,5.01,1.43,8.85,0.8
			c0.21,2.14-5.31,2.65-3.22,4.02c17.12-11.99,36.55,8.2,35.41,26.56c-0.28,4.57-4.77,7.38-2.42,12.07
			c3.3-2.33,3.34-7.92,4.83-12.07c1.28,20.87-18.79,20.38-37.02,21.73c-5.37,0.53-13-0.26-17.03,1.61c6.17,0,47.62,0,47.62,0
			c3.6-2.84,6.65-6.23,8.85-10.46c-0.7,4.67-3.37,7.36-5.63,10.46c4.03,0,8.05,0,12.07,0c0.24-3.49-3.75-6.95-1.61-9.66
			c-0.02,2.7,1.11,4.26,2.41,5.63c-2.97-9.64-5.84-19.37-10.46-27.36c8.1,7.73,9.67,21.99,16.1,31.39c1.92-0.49,5.84,1.01,6.44-0.8
			c-5.88-4.59-8.65-19.02-4.83-28.17C134.75,174.4,140.01,184.39,146.35,190.59z M153.59,137.47c-1.65,4.26-10.59,8.18-15.29,12.07
			C141.8,143.92,148.58,141.57,153.59,137.47z M93.23,112.52c0.1-0.18,5.12,8.16,8.85,9.66C98.84,122.45,94.23,117.16,93.23,112.52z
			 M98.86,118.96c4.53-0.22,15.47,0.08,16.1,6.44C109.68,126.24,102.59,122.31,98.86,118.96z M127.03,160
			c-1.4-2.22-2.73-5.77-4.83-8.05C124.62,151.31,132.85,169.22,127.03,160z">
            <animateTransform attributeName="transform" type="scale" from="0.5" to="1" begin="start.begin"
                              dur="1.5"/>
        </path>
        <path fill="#ffffff" fill-rule="evenodd" d="M85.98,106.88c-0.23,1.64-2.18,1.58-2.41,3.22c-2.11-3.09-10.37-6.33-14.49-9.66
		c-3.09-2.5-5.99-7.91-1.61-2.41c4.67,2.57,9.64,4.84,13.68,8.05c0.38-4.41-4.61-10.41-8.05-13.68
		C77.89,93.52,81.06,103.22,85.98,106.88z">
            <animateTransform attributeName="transform" type="scale" from="0.5" to="1" begin="start.begin"
                              dur="1.5"/>
        </path>
        <path fill="#ffffff" fill-rule="evenodd" d="M85.18,89.18c1.78,0.1,0.34,3.42,0.8,4.83c-0.99,3.18-0.59-5.63-2.41-1.61
		C81.39,91.67,85.41,90.59,85.18,89.18z">
            <animateTransform attributeName="transform" type="scale" from="0.5" to="1" begin="start.begin"
                              dur="1.5"/>
        </path>
        <set attributeName="opacity" to="0"/>
        <animate id="start" attributeName="opacity" from="0" to="1" begin="1" dur="1.5" fill="freeze"/>
        <animate attributeName="x" from="70" to="0" begin="start.begin" dur="1.5"/>
        <animate attributeName="y" from="92" to="0" begin="start.begin" dur="1.5"/>
    </svg>
    <!--2-->
    <svg>
        <path fill="#ffffff" d="M73.36,314.45v-7.29l29.54-45.38c0.31-0.53,1.02-1.61,2.12-3.25c1.1-1.63,1.83-2.73,2.19-3.28
		c0.35-0.55,0.97-1.57,1.86-3.05c0.88-1.48,1.5-2.58,1.85-3.31s0.85-1.77,1.49-3.11c0.64-1.35,1.09-2.52,1.36-3.51
		c0.26-0.99,0.57-2.16,0.93-3.51c0.35-1.35,0.58-2.68,0.7-4.01c0.11-1.33,0.17-2.69,0.17-4.11c0-5.96-1.24-10.61-3.71-13.94
		c-2.47-3.33-6.12-5-10.93-5c-3.31,0-6.11,0.58-8.38,1.72c-2.27,1.15-4.01,2.82-5.2,5c-1.19,2.19-2.04,4.57-2.55,7.15
		c-0.51,2.58-0.76,5.6-0.76,9.04v2.52h-9.87v-2.78c0-10.29,2.11-18.02,6.33-23.19c4.22-5.17,10.87-7.75,19.97-7.75
		c8.17,0,14.39,2.43,18.65,7.29c4.26,4.86,6.39,11.73,6.39,20.6c0,2.61-0.27,5.19-0.79,7.75c-0.53,2.56-1.13,4.79-1.79,6.69
		c-0.66,1.9-1.69,4.12-3.08,6.66c-1.39,2.54-2.53,4.5-3.41,5.9c-0.88,1.39-2.23,3.43-4.04,6.13l-27.42,41.6h38.16v8.41H73.36z">
            <animateTransform attributeName="transform" type="scale" from="0.2,0.8" to="1,1" begin="start.begin+1"
                              dur="1"/>
            <animateTransform attributeName="transform" type="skewY" from="30" to="0" begin="start.begin+1" dur="1"
                              additive="sum"/>
        </path>
        <set attributeName="opacity" to="0"/>
        <animate attributeName="opacity" from="0" to="1" begin="start.begin+1" dur="1" fill="freeze"/>
        <animate attributeName="x" from="80" to="0" begin="start.begin+1" dur="1"/>
        <animate attributeName="y" from="0" to="0" begin="start.begin+1" dur="1"/>

    </svg>
    <!--4-->
    <svg>
        <path fill="#ffffff" d="M172.33,314.45v-31.93h-33.06v-10.4l31-67.57h12.06v68.63h12.45v9.34h-12.45v31.93H172.33z M149.47,273.18
		h22.85V218L149.47,273.18z">
            <animateTransform attributeName="transform" type="scale" from="0.2,0.8" to="1,1" begin="start.begin+1"
                              dur="1"/>
            <animateTransform attributeName="transform" type="skewY" from="30" to="0" begin="start.begin+1" dur="1"
                              additive="sum"/>
        </path>
        <set attributeName="opacity" to="0"/>
        <animate attributeName="opacity" from="0" to="1" begin="start.begin+1" dur="1" fill="freeze"/>
        <animate attributeName="x" from="140" to="0" begin="start.begin+1" dur="1"/>
        <animate attributeName="y" from="-35" to="0" begin="start.begin+1" dur="1"/>
    </svg>
    <!--O-->
    <svg>
        <path fill="#ffffff" d="M102.24,442.47c-5.3,0-9.82-0.81-13.55-2.42c-3.73-1.61-6.65-3.97-8.74-7.09c-2.1-3.11-3.61-6.65-4.54-10.6
		c-0.93-3.95-1.39-8.53-1.39-13.75v-45.58c0-5.17,0.47-9.69,1.42-13.58c0.95-3.89,2.49-7.32,4.64-10.3
		c2.14-2.98,5.07-5.24,8.78-6.79c3.71-1.54,8.17-2.32,13.38-2.32c5.21,0,9.67,0.77,13.38,2.32c3.71,1.55,6.63,3.82,8.78,6.82
		c2.14,3,3.69,6.45,4.64,10.33c0.95,3.89,1.42,8.39,1.42,13.51v45.71c0,4.11-0.28,7.82-0.83,11.13c-0.55,3.31-1.5,6.4-2.85,9.27
		c-1.35,2.87-3.08,5.27-5.2,7.19c-2.12,1.92-4.81,3.42-8.08,4.5C110.23,441.93,106.48,442.47,102.24,442.47z M93.37,432.5
		c2.38,1.08,5.34,1.62,8.88,1.62c3.53,0,6.49-0.54,8.88-1.62c2.38-1.08,4.21-2.7,5.46-4.87c1.26-2.16,2.14-4.57,2.65-7.22
		c0.51-2.65,0.76-5.83,0.76-9.54v-49.68c0-3.71-0.25-6.88-0.76-9.51c-0.51-2.63-1.39-5-2.65-7.12c-1.26-2.12-3.08-3.7-5.46-4.74
		c-2.38-1.04-5.34-1.56-8.88-1.56c-3.53,0-6.49,0.52-8.88,1.56c-2.38,1.04-4.21,2.62-5.46,4.74c-1.26,2.12-2.14,4.49-2.65,7.12
		c-0.51,2.63-0.76,5.8-0.76,9.51v49.68c0,3.71,0.25,6.89,0.76,9.54c0.51,2.65,1.39,5.06,2.65,7.22
		C89.16,429.79,90.98,431.42,93.37,432.5z">
            <animateTransform attributeName="transform" type="scale" from="0.2,0.8" to="1,1" begin="start.begin+1"
                              dur="1"/>
            <animateTransform attributeName="transform" type="skewY" from="30" to="0" begin="start.begin+1" dur="1"
                              additive="sum"/>
        </path>
        <set attributeName="opacity" to="0"/>
        <animate attributeName="opacity" from="0" to="1" begin="start.begin+1" dur="1" fill="freeze"/>
        <animate attributeName="x" from="80" to="0" begin="start.begin+1" dur="1"/>
        <animate attributeName="y" from="28" to="0" begin="start.begin+1" dur="1"/>
    </svg>
    <!--T-->
    <svg>
        <path fill="#ffffff" d="M159.21,441.08V339.19h-22.06v-7.95h53.99v7.95h-21.53v101.88H159.21z">
            <animateTransform attributeName="transform" type="scale" from="0.2,0.8" to="1,1" begin="start.begin+1"
                              dur="1"/>
            <animateTransform attributeName="transform" type="skewY" from="30" to="0" begin="start.begin+1" dur="1"
                              additive="sum"/>
        </path>
        <set attributeName="opacity" to="0"/>
        <animate attributeName="opacity" from="0" to="1" begin="start.begin+1" dur="1" fill="freeze"/>
        <animate attributeName="x" from="140" to="0" begin="start.begin+1" dur="1"/>
    </svg>
    <!--BOUND-->
    <svg>
        <rect id="bound" x="32.83" y="32.83" fill="none" stroke="#ffffff" stroke-width="9" stroke-miterlimit="10"
              width="196.98" height="444.13"/>
        <set attributeName="opacity" to="0"/>
        <animate attributeName="opacity" from="0" to="1" begin="start.begin+2" dur="0.5" fill="freeze"/>
    </svg>
</svg>
